<svg width="216" height="216" viewBox="0 0 216 216" fill="none" xmlns="http://www.w3.org/2000/svg">
<rect width="216" height="216" fill="#F5F5F5"/>
<g clip-path="url(#clip0_0_1)">
<rect width="375" height="1024" transform="translate(-67 -212)" fill="white"/>
<rect x="-49.5" y="-91.5" width="326" height="333.728" rx="8.5" stroke="#EDEDFE" stroke-width="3"/>
<path d="M82.0679 99.1391V113.685H79.4329V101.703H79.3477L75.9457 103.876V101.462L79.5608 99.1391H82.0679ZM91.1375 113.962C89.968 113.962 88.9642 113.666 88.1261 113.074C87.2928 112.477 86.6512 111.618 86.2014 110.496C85.7563 109.369 85.5338 108.012 85.5338 106.426C85.5385 104.84 85.7634 103.49 86.2085 102.378C86.6583 101.26 87.2999 100.408 88.1332 99.8209C88.9713 99.2338 89.9727 98.9403 91.1375 98.9403C92.3023 98.9403 93.3037 99.2338 94.1417 99.8209C94.9798 100.408 95.6214 101.26 96.0665 102.378C96.5163 103.495 96.7412 104.845 96.7412 106.426C96.7412 108.017 96.5163 109.376 96.0665 110.503C95.6214 111.625 94.9798 112.482 94.1417 113.074C93.3084 113.666 92.307 113.962 91.1375 113.962ZM91.1375 111.739C92.0466 111.739 92.7639 111.291 93.2895 110.396C93.8198 109.497 94.0849 108.173 94.0849 106.426C94.0849 105.271 93.9642 104.3 93.7227 103.514C93.4812 102.728 93.1403 102.136 92.7 101.739C92.2596 101.336 91.7388 101.135 91.1375 101.135C90.2331 101.135 89.5182 101.585 88.9926 102.484C88.467 103.379 88.2019 104.693 88.1971 106.426C88.1924 107.586 88.3084 108.561 88.5451 109.352C88.7866 110.143 89.1275 110.739 89.5679 111.142C90.0082 111.54 90.5314 111.739 91.1375 111.739ZM100.147 113.841C99.7158 113.841 99.3465 113.689 99.0388 113.386C98.731 113.083 98.5795 112.714 98.5842 112.278C98.5795 111.852 98.731 111.488 99.0388 111.185C99.3465 110.882 99.7158 110.73 100.147 110.73C100.563 110.73 100.926 110.882 101.233 111.185C101.546 111.488 101.704 111.852 101.709 112.278C101.704 112.567 101.629 112.83 101.482 113.067C101.34 113.303 101.15 113.493 100.914 113.635C100.682 113.772 100.426 113.841 100.147 113.841ZM104.335 113.685V111.781L109.385 106.831C109.868 106.343 110.27 105.91 110.592 105.531C110.914 105.152 111.156 104.785 111.317 104.43C111.478 104.075 111.558 103.696 111.558 103.294C111.558 102.835 111.454 102.442 111.246 102.115C111.037 101.784 110.751 101.528 110.386 101.348C110.022 101.168 109.608 101.078 109.144 101.078C108.665 101.078 108.246 101.177 107.886 101.376C107.527 101.57 107.247 101.847 107.048 102.207C106.854 102.567 106.757 102.996 106.757 103.493H104.25C104.25 102.57 104.461 101.767 104.882 101.085C105.304 100.403 105.884 99.8754 106.622 99.5013C107.366 99.1273 108.218 98.9403 109.179 98.9403C110.154 98.9403 111.011 99.1225 111.75 99.4871C112.489 99.8517 113.062 100.351 113.469 100.986C113.881 101.62 114.087 102.345 114.087 103.159C114.087 103.704 113.983 104.239 113.774 104.764C113.566 105.29 113.199 105.872 112.673 106.511C112.153 107.15 111.421 107.925 110.479 108.834L107.972 111.383V111.483H114.307V113.685H104.335ZM124.534 110.957V110.19C124.534 109.627 124.653 109.108 124.889 108.635C125.131 108.161 125.481 107.78 125.94 107.491C126.4 107.203 126.956 107.058 127.609 107.058C128.282 107.058 128.845 107.203 129.3 107.491C129.754 107.775 130.098 108.154 130.33 108.628C130.566 109.101 130.685 109.622 130.685 110.19V110.957C130.685 111.521 130.566 112.039 130.33 112.513C130.093 112.986 129.745 113.367 129.286 113.656C128.831 113.945 128.272 114.089 127.609 114.089C126.947 114.089 126.385 113.945 125.926 113.656C125.467 113.367 125.119 112.986 124.882 112.513C124.65 112.039 124.534 111.521 124.534 110.957ZM126.388 110.19V110.957C126.388 111.331 126.478 111.675 126.658 111.987C126.838 112.3 127.155 112.456 127.609 112.456C128.069 112.456 128.384 112.302 128.554 111.994C128.729 111.682 128.817 111.336 128.817 110.957V110.19C128.817 109.811 128.734 109.466 128.568 109.153C128.403 108.836 128.083 108.677 127.609 108.677C127.164 108.677 126.849 108.836 126.665 109.153C126.48 109.466 126.388 109.811 126.388 110.19ZM117.141 102.633V101.866C117.141 101.298 117.261 100.777 117.503 100.304C117.744 99.8304 118.095 99.4516 118.554 99.1675C119.013 98.8787 119.57 98.7343 120.223 98.7343C120.891 98.7343 121.452 98.8787 121.906 99.1675C122.366 99.4516 122.711 99.8304 122.943 100.304C123.175 100.777 123.291 101.298 123.291 101.866V102.633C123.291 103.202 123.173 103.722 122.936 104.196C122.704 104.665 122.358 105.041 121.899 105.325C121.44 105.609 120.881 105.751 120.223 105.751C119.555 105.751 118.992 105.609 118.533 105.325C118.078 105.041 117.733 104.662 117.496 104.189C117.259 103.715 117.141 103.197 117.141 102.633ZM119.009 101.866V102.633C119.009 103.012 119.096 103.358 119.271 103.67C119.451 103.978 119.769 104.132 120.223 104.132C120.678 104.132 120.99 103.978 121.161 103.67C121.336 103.358 121.423 103.012 121.423 102.633V101.866C121.423 101.488 121.34 101.142 121.175 100.829C121.009 100.512 120.692 100.354 120.223 100.354C119.773 100.354 119.458 100.512 119.278 100.829C119.099 101.147 119.009 101.492 119.009 101.866ZM117.95 113.685L127.95 99.1391H129.726L119.726 113.685H117.95Z" fill="black"/>
<path d="M21.1313 170.589C-13.4725 122.624 -2.64095 55.6883 45.3242 21.0846C93.2893 -13.5192 160.225 -2.68768 194.828 45.2774C229.432 93.2426 218.601 160.178 170.635 194.782C122.67 229.385 55.7351 218.554 21.1313 170.589ZM166.383 65.7992C143.113 33.5442 98.1009 26.2604 65.846 49.5303C33.591 72.8002 26.3071 117.812 49.577 150.067C72.8469 182.322 117.859 189.606 150.114 166.336C182.369 143.066 189.653 98.0542 166.383 65.7992Z" fill="#D9D9D9"/>
<path d="M33.7733 185.145C43.9131 194.89 55.8729 202.543 68.97 207.665C82.0671 212.788 96.045 215.281 110.106 215.002L109.415 180.243C99.9195 180.431 90.4795 178.748 81.6342 175.288C72.789 171.828 64.7118 166.66 57.8639 160.079L33.7733 185.145Z" fill="#F26722"/>
</g>
<rect x="-49.5" y="-91.5" width="326" height="333.728" rx="8.5" stroke="#EDEDFE" stroke-width="3"/>
<path d="M82.0679 99.1391V113.685H79.4329V101.703H79.3477L75.9457 103.876V101.462L79.5608 99.1391H82.0679ZM91.1375 113.962C89.968 113.962 88.9642 113.666 88.1261 113.074C87.2928 112.477 86.6512 111.618 86.2014 110.496C85.7563 109.369 85.5338 108.012 85.5338 106.426C85.5385 104.84 85.7634 103.49 86.2085 102.378C86.6583 101.26 87.2999 100.408 88.1332 99.8209C88.9713 99.2338 89.9727 98.9403 91.1375 98.9403C92.3023 98.9403 93.3037 99.2338 94.1417 99.8209C94.9798 100.408 95.6214 101.26 96.0665 102.378C96.5163 103.495 96.7412 104.845 96.7412 106.426C96.7412 108.017 96.5163 109.376 96.0665 110.503C95.6214 111.625 94.9798 112.482 94.1417 113.074C93.3084 113.666 92.307 113.962 91.1375 113.962ZM91.1375 111.739C92.0466 111.739 92.7639 111.291 93.2895 110.396C93.8198 109.497 94.0849 108.173 94.0849 106.426C94.0849 105.271 93.9642 104.3 93.7227 103.514C93.4812 102.728 93.1403 102.136 92.7 101.739C92.2596 101.336 91.7388 101.135 91.1375 101.135C90.2331 101.135 89.5182 101.585 88.9926 102.484C88.467 103.379 88.2019 104.693 88.1971 106.426C88.1924 107.586 88.3084 108.561 88.5451 109.352C88.7866 110.143 89.1275 110.739 89.5679 111.142C90.0082 111.54 90.5314 111.739 91.1375 111.739ZM100.147 113.841C99.7158 113.841 99.3465 113.689 99.0388 113.386C98.731 113.083 98.5795 112.714 98.5842 112.278C98.5795 111.852 98.731 111.488 99.0388 111.185C99.3465 110.882 99.7158 110.73 100.147 110.73C100.563 110.73 100.926 110.882 101.233 111.185C101.546 111.488 101.704 111.852 101.709 112.278C101.704 112.567 101.629 112.83 101.482 113.067C101.34 113.303 101.15 113.493 100.914 113.635C100.682 113.772 100.426 113.841 100.147 113.841ZM104.335 113.685V111.781L109.385 106.831C109.868 106.343 110.27 105.91 110.592 105.531C110.914 105.152 111.156 104.785 111.317 104.43C111.478 104.075 111.558 103.696 111.558 103.294C111.558 102.835 111.454 102.442 111.246 102.115C111.037 101.784 110.751 101.528 110.386 101.348C110.022 101.168 109.608 101.078 109.144 101.078C108.665 101.078 108.246 101.177 107.886 101.376C107.527 101.57 107.247 101.847 107.048 102.207C106.854 102.567 106.757 102.996 106.757 103.493H104.25C104.25 102.57 104.461 101.767 104.882 101.085C105.304 100.403 105.884 99.8754 106.622 99.5013C107.366 99.1273 108.218 98.9403 109.179 98.9403C110.154 98.9403 111.011 99.1225 111.75 99.4871C112.489 99.8517 113.062 100.351 113.469 100.986C113.881 101.62 114.087 102.345 114.087 103.159C114.087 103.704 113.983 104.239 113.774 104.764C113.566 105.29 113.199 105.872 112.673 106.511C112.153 107.15 111.421 107.925 110.479 108.834L107.972 111.383V111.483H114.307V113.685H104.335ZM124.534 110.957V110.19C124.534 109.627 124.653 109.108 124.889 108.635C125.131 108.161 125.481 107.78 125.94 107.491C126.4 107.203 126.956 107.058 127.609 107.058C128.282 107.058 128.845 107.203 129.3 107.491C129.754 107.775 130.098 108.154 130.33 108.628C130.566 109.101 130.685 109.622 130.685 110.19V110.957C130.685 111.521 130.566 112.039 130.33 112.513C130.093 112.986 129.745 113.367 129.286 113.656C128.831 113.945 128.272 114.089 127.609 114.089C126.947 114.089 126.385 113.945 125.926 113.656C125.467 113.367 125.119 112.986 124.882 112.513C124.65 112.039 124.534 111.521 124.534 110.957ZM126.388 110.19V110.957C126.388 111.331 126.478 111.675 126.658 111.987C126.838 112.3 127.155 112.456 127.609 112.456C128.069 112.456 128.384 112.302 128.554 111.994C128.729 111.682 128.817 111.336 128.817 110.957V110.19C128.817 109.811 128.734 109.466 128.568 109.153C128.403 108.836 128.083 108.677 127.609 108.677C127.164 108.677 126.849 108.836 126.665 109.153C126.48 109.466 126.388 109.811 126.388 110.19ZM117.141 102.633V101.866C117.141 101.298 117.261 100.777 117.503 100.304C117.744 99.8304 118.095 99.4516 118.554 99.1675C119.013 98.8787 119.57 98.7343 120.223 98.7343C120.891 98.7343 121.452 98.8787 121.906 99.1675C122.366 99.4516 122.711 99.8304 122.943 100.304C123.175 100.777 123.291 101.298 123.291 101.866V102.633C123.291 103.202 123.173 103.722 122.936 104.196C122.704 104.665 122.358 105.041 121.899 105.325C121.44 105.609 120.881 105.751 120.223 105.751C119.555 105.751 118.992 105.609 118.533 105.325C118.078 105.041 117.733 104.662 117.496 104.189C117.259 103.715 117.141 103.197 117.141 102.633ZM119.009 101.866V102.633C119.009 103.012 119.096 103.358 119.271 103.67C119.451 103.978 119.769 104.132 120.223 104.132C120.678 104.132 120.99 103.978 121.161 103.67C121.336 103.358 121.423 103.012 121.423 102.633V101.866C121.423 101.488 121.34 101.142 121.175 100.829C121.009 100.512 120.692 100.354 120.223 100.354C119.773 100.354 119.458 100.512 119.278 100.829C119.099 101.147 119.009 101.492 119.009 101.866ZM117.95 113.685L127.95 99.1391H129.726L119.726 113.685H117.95Z" fill="black"/>
<path d="M21.1313 170.589C-13.4725 122.624 -2.64095 55.6883 45.3242 21.0846C93.2893 -13.5192 160.225 -2.68768 194.828 45.2774C229.432 93.2426 218.601 160.178 170.635 194.782C122.67 229.385 55.7351 218.554 21.1313 170.589ZM166.383 65.7992C143.113 33.5442 98.1009 26.2604 65.846 49.5303C33.591 72.8002 26.3071 117.812 49.577 150.067C72.8469 182.322 117.859 189.606 150.114 166.336C182.369 143.066 189.653 98.0542 166.383 65.7992Z" fill="#D9D9D9"/>
<path d="M33.7733 185.145C43.9131 194.89 55.8729 202.543 68.97 207.665C82.0671 212.788 96.045 215.281 110.106 215.002L109.415 180.243C99.9195 180.431 90.4795 178.748 81.6342 175.288C72.789 171.828 64.7118 166.66 57.8639 160.079L33.7733 185.145Z" fill="#F26722"/>
<g clip-path="url(#clip1_0_1)">
<rect width="375" height="1399" transform="translate(-67 -211)" fill="white"/>
<rect x="-49.5" y="-90.5" width="326" height="333.728" rx="8.5" stroke="#EDEDFE" stroke-width="3"/>
<path d="M82.0679 100.139V114.685H79.4329V102.703H79.3477L75.9457 104.876V102.462L79.5608 100.139H82.0679ZM91.1375 114.962C89.968 114.962 88.9642 114.666 88.1261 114.074C87.2928 113.477 86.6512 112.618 86.2014 111.496C85.7563 110.369 85.5338 109.012 85.5338 107.426C85.5385 105.84 85.7634 104.49 86.2085 103.378C86.6583 102.26 87.2999 101.408 88.1332 100.821C88.9713 100.234 89.9727 99.9403 91.1375 99.9403C92.3023 99.9403 93.3037 100.234 94.1417 100.821C94.9798 101.408 95.6214 102.26 96.0665 103.378C96.5163 104.495 96.7412 105.845 96.7412 107.426C96.7412 109.017 96.5163 110.376 96.0665 111.503C95.6214 112.625 94.9798 113.482 94.1417 114.074C93.3084 114.666 92.307 114.962 91.1375 114.962ZM91.1375 112.739C92.0466 112.739 92.7639 112.291 93.2895 111.396C93.8198 110.497 94.0849 109.173 94.0849 107.426C94.0849 106.271 93.9642 105.3 93.7227 104.514C93.4812 103.728 93.1403 103.136 92.7 102.739C92.2596 102.336 91.7388 102.135 91.1375 102.135C90.2331 102.135 89.5182 102.585 88.9926 103.484C88.467 104.379 88.2019 105.693 88.1971 107.426C88.1924 108.586 88.3084 109.561 88.5451 110.352C88.7866 111.143 89.1275 111.739 89.5679 112.142C90.0082 112.54 90.5314 112.739 91.1375 112.739ZM100.147 114.841C99.7158 114.841 99.3465 114.689 99.0388 114.386C98.731 114.083 98.5795 113.714 98.5842 113.278C98.5795 112.852 98.731 112.488 99.0388 112.185C99.3465 111.882 99.7158 111.73 100.147 111.73C100.563 111.73 100.926 111.882 101.233 112.185C101.546 112.488 101.704 112.852 101.709 113.278C101.704 113.567 101.629 113.83 101.482 114.067C101.34 114.303 101.15 114.493 100.914 114.635C100.682 114.772 100.426 114.841 100.147 114.841ZM104.335 114.685V112.781L109.385 107.831C109.868 107.343 110.27 106.91 110.592 106.531C110.914 106.152 111.156 105.785 111.317 105.43C111.478 105.075 111.558 104.696 111.558 104.294C111.558 103.835 111.454 103.442 111.246 103.115C111.037 102.784 110.751 102.528 110.386 102.348C110.022 102.168 109.608 102.078 109.144 102.078C108.665 102.078 108.246 102.177 107.886 102.376C107.527 102.57 107.247 102.847 107.048 103.207C106.854 103.567 106.757 103.996 106.757 104.493H104.25C104.25 103.57 104.461 102.767 104.882 102.085C105.304 101.403 105.884 100.875 106.622 100.501C107.366 100.127 108.218 99.9403 109.179 99.9403C110.154 99.9403 111.011 100.123 111.75 100.487C112.489 100.852 113.062 101.351 113.469 101.986C113.881 102.62 114.087 103.345 114.087 104.159C114.087 104.704 113.983 105.239 113.774 105.764C113.566 106.29 113.199 106.872 112.673 107.511C112.153 108.15 111.421 108.925 110.479 109.834L107.972 112.383V112.483H114.307V114.685H104.335ZM124.534 111.957V111.19C124.534 110.627 124.653 110.108 124.889 109.635C125.131 109.161 125.481 108.78 125.94 108.491C126.4 108.203 126.956 108.058 127.609 108.058C128.282 108.058 128.845 108.203 129.3 108.491C129.754 108.775 130.098 109.154 130.33 109.628C130.566 110.101 130.685 110.622 130.685 111.19V111.957C130.685 112.521 130.566 113.039 130.33 113.513C130.093 113.986 129.745 114.367 129.286 114.656C128.831 114.945 128.272 115.089 127.609 115.089C126.947 115.089 126.385 114.945 125.926 114.656C125.467 114.367 125.119 113.986 124.882 113.513C124.65 113.039 124.534 112.521 124.534 111.957ZM126.388 111.19V111.957C126.388 112.331 126.478 112.675 126.658 112.987C126.838 113.3 127.155 113.456 127.609 113.456C128.069 113.456 128.384 113.302 128.554 112.994C128.729 112.682 128.817 112.336 128.817 111.957V111.19C128.817 110.811 128.734 110.466 128.568 110.153C128.403 109.836 128.083 109.677 127.609 109.677C127.164 109.677 126.849 109.836 126.665 110.153C126.48 110.466 126.388 110.811 126.388 111.19ZM117.141 103.633V102.866C117.141 102.298 117.261 101.777 117.503 101.304C117.744 100.83 118.095 100.452 118.554 100.168C119.013 99.8787 119.57 99.7343 120.223 99.7343C120.891 99.7343 121.452 99.8787 121.906 100.168C122.366 100.452 122.711 100.83 122.943 101.304C123.175 101.777 123.291 102.298 123.291 102.866V103.633C123.291 104.202 123.173 104.722 122.936 105.196C122.704 105.665 122.358 106.041 121.899 106.325C121.44 106.609 120.881 106.751 120.223 106.751C119.555 106.751 118.992 106.609 118.533 106.325C118.078 106.041 117.733 105.662 117.496 105.189C117.259 104.715 117.141 104.197 117.141 103.633ZM119.009 102.866V103.633C119.009 104.012 119.096 104.358 119.271 104.67C119.451 104.978 119.769 105.132 120.223 105.132C120.678 105.132 120.99 104.978 121.161 104.67C121.336 104.358 121.423 104.012 121.423 103.633V102.866C121.423 102.488 121.34 102.142 121.175 101.829C121.009 101.512 120.692 101.354 120.223 101.354C119.773 101.354 119.458 101.512 119.278 101.829C119.099 102.147 119.009 102.492 119.009 102.866ZM117.95 114.685L127.95 100.139H129.726L119.726 114.685H117.95Z" fill="black"/>
<path d="M21.1313 171.589C-13.4725 123.624 -2.64095 56.6883 45.3242 22.0846C93.2893 -12.5192 160.225 -1.68768 194.828 46.2774C229.432 94.2426 218.601 161.178 170.635 195.782C122.67 230.385 55.7351 219.554 21.1313 171.589ZM166.383 66.7992C143.113 34.5442 98.1009 27.2604 65.846 50.5303C33.591 73.8002 26.3071 118.812 49.577 151.067C72.8469 183.322 117.859 190.606 150.114 167.336C182.369 144.066 189.653 99.0542 166.383 66.7992Z" fill="#D9D9D9"/>
<path d="M33.7733 186.145C43.9131 195.89 55.8729 203.543 68.97 208.665C82.0671 213.788 96.045 216.281 110.106 216.002L109.415 181.243C99.9195 181.431 90.4795 179.748 81.6342 176.288C72.789 172.828 64.7118 167.66 57.8639 161.079L33.7733 186.145Z" fill="#F26722"/>
</g>
<rect x="-49.5" y="-91.5" width="326" height="333.728" rx="8.5" stroke="#EDEDFE" stroke-width="3"/>
<path d="M82.0679 99.1391V113.685H79.4329V101.703H79.3477L75.9457 103.876V101.462L79.5608 99.1391H82.0679ZM91.1375 113.962C89.968 113.962 88.9642 113.666 88.1261 113.074C87.2928 112.477 86.6512 111.618 86.2014 110.496C85.7563 109.369 85.5338 108.012 85.5338 106.426C85.5385 104.84 85.7634 103.49 86.2085 102.378C86.6583 101.26 87.2999 100.408 88.1332 99.8209C88.9713 99.2338 89.9727 98.9403 91.1375 98.9403C92.3023 98.9403 93.3037 99.2338 94.1417 99.8209C94.9798 100.408 95.6214 101.26 96.0665 102.378C96.5163 103.495 96.7412 104.845 96.7412 106.426C96.7412 108.017 96.5163 109.376 96.0665 110.503C95.6214 111.625 94.9798 112.482 94.1417 113.074C93.3084 113.666 92.307 113.962 91.1375 113.962ZM91.1375 111.739C92.0466 111.739 92.7639 111.291 93.2895 110.396C93.8198 109.497 94.0849 108.173 94.0849 106.426C94.0849 105.271 93.9642 104.3 93.7227 103.514C93.4812 102.728 93.1403 102.136 92.7 101.739C92.2596 101.336 91.7388 101.135 91.1375 101.135C90.2331 101.135 89.5182 101.585 88.9926 102.484C88.467 103.379 88.2019 104.693 88.1971 106.426C88.1924 107.586 88.3084 108.561 88.5451 109.352C88.7866 110.143 89.1275 110.739 89.5679 111.142C90.0082 111.54 90.5314 111.739 91.1375 111.739ZM100.147 113.841C99.7158 113.841 99.3465 113.689 99.0388 113.386C98.731 113.083 98.5795 112.714 98.5842 112.278C98.5795 111.852 98.731 111.488 99.0388 111.185C99.3465 110.882 99.7158 110.73 100.147 110.73C100.563 110.73 100.926 110.882 101.233 111.185C101.546 111.488 101.704 111.852 101.709 112.278C101.704 112.567 101.629 112.83 101.482 113.067C101.34 113.303 101.15 113.493 100.914 113.635C100.682 113.772 100.426 113.841 100.147 113.841ZM104.335 113.685V111.781L109.385 106.831C109.868 106.343 110.27 105.91 110.592 105.531C110.914 105.152 111.156 104.785 111.317 104.43C111.478 104.075 111.558 103.696 111.558 103.294C111.558 102.835 111.454 102.442 111.246 102.115C111.037 101.784 110.751 101.528 110.386 101.348C110.022 101.168 109.608 101.078 109.144 101.078C108.665 101.078 108.246 101.177 107.886 101.376C107.527 101.57 107.247 101.847 107.048 102.207C106.854 102.567 106.757 102.996 106.757 103.493H104.25C104.25 102.57 104.461 101.767 104.882 101.085C105.304 100.403 105.884 99.8754 106.622 99.5013C107.366 99.1273 108.218 98.9403 109.179 98.9403C110.154 98.9403 111.011 99.1225 111.75 99.4871C112.489 99.8517 113.062 100.351 113.469 100.986C113.881 101.62 114.087 102.345 114.087 103.159C114.087 103.704 113.983 104.239 113.774 104.764C113.566 105.29 113.199 105.872 112.673 106.511C112.153 107.15 111.421 107.925 110.479 108.834L107.972 111.383V111.483H114.307V113.685H104.335ZM124.534 110.957V110.19C124.534 109.627 124.653 109.108 124.889 108.635C125.131 108.161 125.481 107.78 125.94 107.491C126.4 107.203 126.956 107.058 127.609 107.058C128.282 107.058 128.845 107.203 129.3 107.491C129.754 107.775 130.098 108.154 130.33 108.628C130.566 109.101 130.685 109.622 130.685 110.19V110.957C130.685 111.521 130.566 112.039 130.33 112.513C130.093 112.986 129.745 113.367 129.286 113.656C128.831 113.945 128.272 114.089 127.609 114.089C126.947 114.089 126.385 113.945 125.926 113.656C125.467 113.367 125.119 112.986 124.882 112.513C124.65 112.039 124.534 111.521 124.534 110.957ZM126.388 110.19V110.957C126.388 111.331 126.478 111.675 126.658 111.987C126.838 112.3 127.155 112.456 127.609 112.456C128.069 112.456 128.384 112.302 128.554 111.994C128.729 111.682 128.817 111.336 128.817 110.957V110.19C128.817 109.811 128.734 109.466 128.568 109.153C128.403 108.836 128.083 108.677 127.609 108.677C127.164 108.677 126.849 108.836 126.665 109.153C126.48 109.466 126.388 109.811 126.388 110.19ZM117.141 102.633V101.866C117.141 101.298 117.261 100.777 117.503 100.304C117.744 99.8304 118.095 99.4516 118.554 99.1675C119.013 98.8787 119.57 98.7343 120.223 98.7343C120.891 98.7343 121.452 98.8787 121.906 99.1675C122.366 99.4516 122.711 99.8304 122.943 100.304C123.175 100.777 123.291 101.298 123.291 101.866V102.633C123.291 103.202 123.173 103.722 122.936 104.196C122.704 104.665 122.358 105.041 121.899 105.325C121.44 105.609 120.881 105.751 120.223 105.751C119.555 105.751 118.992 105.609 118.533 105.325C118.078 105.041 117.733 104.662 117.496 104.189C117.259 103.715 117.141 103.197 117.141 102.633ZM119.009 101.866V102.633C119.009 103.012 119.096 103.358 119.271 103.67C119.451 103.978 119.769 104.132 120.223 104.132C120.678 104.132 120.99 103.978 121.161 103.67C121.336 103.358 121.423 103.012 121.423 102.633V101.866C121.423 101.488 121.34 101.142 121.175 100.829C121.009 100.512 120.692 100.354 120.223 100.354C119.773 100.354 119.458 100.512 119.278 100.829C119.099 101.147 119.009 101.492 119.009 101.866ZM117.95 113.685L127.95 99.1391H129.726L119.726 113.685H117.95Z" fill="black"/>
<path d="M21.1313 170.589C-13.4725 122.624 -2.64095 55.6883 45.3242 21.0846C93.2893 -13.5192 160.225 -2.68768 194.828 45.2774C229.432 93.2426 218.601 160.178 170.635 194.782C122.67 229.385 55.7351 218.554 21.1313 170.589ZM166.383 65.7992C143.113 33.5442 98.1009 26.2604 65.846 49.5303C33.591 72.8002 26.3071 117.812 49.577 150.067C72.8469 182.322 117.859 189.606 150.114 166.336C182.369 143.066 189.653 98.0542 166.383 65.7992Z" fill="#D9D9D9"/>
<path d="M33.7733 185.145C43.9131 194.89 55.8729 202.543 68.97 207.665C82.0671 212.788 96.045 215.281 110.106 215.002L109.415 180.243C99.9195 180.431 90.4795 178.748 81.6342 175.288C72.789 171.828 64.7118 166.66 57.8639 160.079L33.7733 185.145Z" fill="#F26722"/>
<defs>
<clipPath id="clip0_0_1">
<rect width="375" height="1024" fill="white" transform="translate(-67 -212)"/>
</clipPath>
<clipPath id="clip1_0_1">
<rect width="375" height="1399" fill="white" transform="translate(-67 -211)"/>
</clipPath>
</defs>
</svg>
