<svg width="290" height="291" viewBox="0 0 290 291" fill="none" xmlns="http://www.w3.org/2000/svg">
<rect width="290" height="291" fill="#F5F5F5"/>
<rect width="1440" height="1024" transform="translate(-345 -235)" fill="white"/>
<rect x="-68.5" y="-124.5" width="442" height="452.453" rx="8.5" stroke="#EDEDFE" stroke-width="3"/>
<path d="M119.209 132.455V147H116.574V135.018H116.489L113.087 137.192V134.777L116.702 132.455H119.209ZM128.278 147.277C127.109 147.277 126.105 146.981 125.267 146.389C124.434 145.793 123.792 144.933 123.342 143.811C122.897 142.684 122.675 141.328 122.675 139.741C122.679 138.155 122.904 136.806 123.349 135.693C123.799 134.576 124.441 133.723 125.274 133.136C126.112 132.549 127.114 132.256 128.278 132.256C129.443 132.256 130.445 132.549 131.283 133.136C132.121 133.723 132.762 134.576 133.207 135.693C133.657 136.811 133.882 138.16 133.882 139.741C133.882 141.332 133.657 142.691 133.207 143.818C132.762 144.94 132.121 145.797 131.283 146.389C130.449 146.981 129.448 147.277 128.278 147.277ZM128.278 145.054C129.188 145.054 129.905 144.607 130.43 143.712C130.961 142.812 131.226 141.489 131.226 139.741C131.226 138.586 131.105 137.616 130.864 136.83C130.622 136.044 130.281 135.452 129.841 135.054C129.401 134.652 128.88 134.45 128.278 134.45C127.374 134.45 126.659 134.9 126.134 135.8C125.608 136.695 125.343 138.009 125.338 139.741C125.333 140.902 125.449 141.877 125.686 142.668C125.928 143.458 126.268 144.055 126.709 144.457C127.149 144.855 127.672 145.054 128.278 145.054ZM137.288 147.156C136.857 147.156 136.487 147.005 136.18 146.702C135.872 146.399 135.72 146.029 135.725 145.594C135.72 145.168 135.872 144.803 136.18 144.5C136.487 144.197 136.857 144.045 137.288 144.045C137.704 144.045 138.067 144.197 138.374 144.5C138.687 144.803 138.845 145.168 138.85 145.594C138.845 145.883 138.77 146.145 138.623 146.382C138.481 146.619 138.291 146.808 138.055 146.95C137.823 147.088 137.567 147.156 137.288 147.156ZM141.476 147V145.097L146.526 140.146C147.009 139.659 147.411 139.225 147.733 138.847C148.055 138.468 148.297 138.101 148.458 137.746C148.619 137.391 148.699 137.012 148.699 136.609C148.699 136.15 148.595 135.757 148.387 135.43C148.178 135.099 147.892 134.843 147.527 134.663C147.163 134.483 146.748 134.393 146.284 134.393C145.806 134.393 145.387 134.493 145.027 134.692C144.667 134.886 144.388 135.163 144.189 135.523C143.995 135.883 143.898 136.311 143.898 136.808H141.391C141.391 135.885 141.602 135.082 142.023 134.401C142.444 133.719 143.025 133.191 143.763 132.817C144.507 132.443 145.359 132.256 146.32 132.256C147.295 132.256 148.152 132.438 148.891 132.803C149.63 133.167 150.203 133.667 150.61 134.301C151.022 134.936 151.228 135.66 151.228 136.474C151.228 137.019 151.123 137.554 150.915 138.08C150.707 138.605 150.34 139.187 149.814 139.827C149.293 140.466 148.562 141.24 147.62 142.149L145.113 144.699V144.798H151.448V147H141.476ZM161.675 144.273V143.506C161.675 142.942 161.793 142.424 162.03 141.95C162.272 141.477 162.622 141.096 163.081 140.807C163.541 140.518 164.097 140.374 164.75 140.374C165.423 140.374 165.986 140.518 166.441 140.807C166.895 141.091 167.239 141.47 167.471 141.943C167.707 142.417 167.826 142.937 167.826 143.506V144.273C167.826 144.836 167.707 145.355 167.471 145.828C167.234 146.302 166.886 146.683 166.426 146.972C165.972 147.26 165.413 147.405 164.75 147.405C164.087 147.405 163.526 147.26 163.067 146.972C162.608 146.683 162.26 146.302 162.023 145.828C161.791 145.355 161.675 144.836 161.675 144.273ZM163.529 143.506V144.273C163.529 144.647 163.619 144.99 163.799 145.303C163.979 145.615 164.296 145.771 164.75 145.771C165.21 145.771 165.525 145.617 165.695 145.31C165.87 144.997 165.958 144.652 165.958 144.273V143.506C165.958 143.127 165.875 142.781 165.709 142.469C165.543 142.152 165.224 141.993 164.75 141.993C164.305 141.993 163.99 142.152 163.806 142.469C163.621 142.781 163.529 143.127 163.529 143.506ZM154.282 135.949V135.182C154.282 134.614 154.402 134.093 154.644 133.619C154.885 133.146 155.236 132.767 155.695 132.483C156.154 132.194 156.711 132.05 157.364 132.05C158.032 132.05 158.593 132.194 159.047 132.483C159.507 132.767 159.852 133.146 160.084 133.619C160.316 134.093 160.432 134.614 160.432 135.182V135.949C160.432 136.517 160.314 137.038 160.077 137.511C159.845 137.98 159.499 138.357 159.04 138.641C158.581 138.925 158.022 139.067 157.364 139.067C156.696 139.067 156.133 138.925 155.674 138.641C155.219 138.357 154.873 137.978 154.637 137.504C154.4 137.031 154.282 136.512 154.282 135.949ZM156.15 135.182V135.949C156.15 136.328 156.237 136.673 156.412 136.986C156.592 137.294 156.909 137.447 157.364 137.447C157.819 137.447 158.131 137.294 158.301 136.986C158.477 136.673 158.564 136.328 158.564 135.949V135.182C158.564 134.803 158.481 134.457 158.316 134.145C158.15 133.828 157.833 133.669 157.364 133.669C156.914 133.669 156.599 133.828 156.419 134.145C156.239 134.462 156.15 134.808 156.15 135.182ZM155.091 147L165.091 132.455H166.867L156.867 147H155.091Z" fill="black"/>
<path d="M27.5636 230.525C-19.2409 165.648 -4.59035 75.1127 60.2865 28.3082C125.163 -18.4963 215.699 -3.84576 262.503 61.0311C309.308 125.908 294.657 216.444 229.78 263.248C164.904 310.052 74.3681 295.402 27.5636 230.525ZM224.028 88.7885C192.554 45.1609 131.671 35.3089 88.0439 66.7834C44.4164 98.2579 34.5643 159.14 66.0388 202.768C97.5133 246.395 158.396 256.247 202.023 224.773C245.651 193.298 255.503 132.416 224.028 88.7885Z" fill="#D9D9D9"/>
<path d="M44.663 250.215C58.3778 263.396 74.5545 273.746 92.2694 280.675C109.984 287.604 128.891 290.976 147.909 290.599L146.975 243.584C134.131 243.839 121.363 241.562 109.399 236.882C97.435 232.202 86.5099 225.212 77.2475 216.31L44.663 250.215Z" fill="#F26722"/>
</svg>
